<svg viewBox="0 0 256 256" xmlns="http://www.w3.org/2000/svg"><defs><linearGradient id="a" x1="98.031%" x2="58.888%" y1=".161%" y2="40.766%"><stop offset="18%" stop-color="#0052CC"/><stop offset="100%" stop-color="#2684FF"/></linearGradient><linearGradient id="b" x1="100.665%" x2="55.402%" y1=".455%" y2="44.727%"><stop offset="18%" stop-color="#0052CC"/><stop offset="100%" stop-color="#2684FF"/></linearGradient></defs><path d="M244.658 0H121.707a55.502 55.502 0 0 0 55.502 55.502h22.642V77.37c.02 30.625 24.834 55.447 55.459 55.482V10.666C255.31 4.777 250.532 0 244.658 0z" fill="#2684FF"/><path d="M183.822 61.262H60.872c.019 30.625 24.834 55.447 55.459 55.482h22.642v21.868c.019 30.625 24.834 55.447 55.459 55.482V71.93c0-5.891-4.776-10.667-10.61-10.667z" fill="url(#a)"/><path d="M122.951 122.489H0c0 30.653 24.85 55.502 55.502 55.502h22.642v21.868c.02 30.597 24.798 55.426 55.391 55.482V133.156c0-5.891-4.776-10.667-10.584-10.667z" fill="url(#b)"/></svg>
