<svg viewBox="0 0 128 128" xmlns="http://www.w3.org/2000/svg"><path d="M93.809 73.047c-2.86-2.976-4.548-5.391-7.278-5.391-.578 0-1.202.105-1.89.34l-.457.156c.047-.32.082-.641.082-.953 0-5.625-8.406-17.594-10.547-20.719-5.234-7.656-12.656-12.266-20.547-12.766h-.75c-7.578.344-14.75 4.844-19.86 12.438-1.968 2.922-10.546 15.094-10.546 21.047 0 .563.054 1.125.168 1.672l-.098-.031c-.527-.176-1.102-.27-1.707-.27-2.734 0-4.422 2.414-7.281 5.391C7.39 80.266 0 88.734 0 92.641c0 2.219 1.89 3.844 4.484 3.844 4.422 0 10.891-4.375 16.313-10.766l.042-.05a6.216 6.216 0 004.27 1.706c1.359 0 2.617-.437 3.624-1.16.157 1.023.645 2.043 1.395 2.961 1.68 2.078 4.078 3.023 6.93 3.023.742 0 1.496-.078 2.269-.23 4.172-.836 6.578-3.235 8.328-5.082l.766-.793c.332.02.668.031 1.008.031h.484c.305 0 .606-.008.906-.023l.672.695c1.75 1.844 4.157 4.242 8.332 5.078.773.156 1.523.234 2.265.234 2.86 0 5.254-.945 6.934-3.027.754-.922 1.238-1.937 1.395-2.96a6.266 6.266 0 003.621 1.16 6.21 6.21 0 004.274-1.708l.039.051c5.422 6.39 11.89 10.766 16.313 10.766 2.593 0 4.484-1.625 4.484-3.844 0-3.906-7.39-12.375-13.125-19.594" fill="#336791"/><path d="M52.684 34.277c6.953.469 13.563 4.625 18.344 11.625 2.11 3.094 10.313 14.828 10.313 19.953 0 1.078-.36 2.133-1.082 3.125-.73.996-1.477 1.523-2.227 1.523-.41 0-.863-.14-1.367-.414-2.055-1.133-3.977-4.273-5.797-7.258-2.844-4.656-6.07-9.938-11.305-9.938h-.117c-5.273.082-8.426 5.39-11.234 10.07-1.793 2.992-3.688 6.11-5.734 7.238-.504.278-.96.414-1.371.414-.746 0-1.492-.527-2.223-1.527-.718-.992-1.082-2.047-1.082-3.125 0-5.125 8.203-16.86 10.313-19.953 4.671-6.922 11.14-11.187 17.832-11.672h.735m8.82 52.754c-2.406-2.539-4.492-4.738-8.203-5.484a11.506 11.506 0 01-1.953-.2c-.535.16-1.133.25-1.844.25h-.484c-.711 0-1.313-.09-1.848-.25a11.506 11.506 0 01-1.953.2c-3.71.745-5.796 2.945-8.203 5.484l-.766.793a6.07 6.07 0 01-.386.379l-.079.066a6.18 6.18 0 01-.128.102l-.09.07c-.04.027-.082.058-.121.082l-.098.062a7.002 7.002 0 01-.129.082l-.097.055c-.047.027-.094.054-.14.078l-.094.047-.145.07-.094.043c-.05.023-.101.047-.152.066l-.09.04c-.054.023-.109.042-.164.062l-.082.031a3.376 3.376 0 01-.176.059l-.074.023a3.64 3.64 0 01-.187.05l-.067.016a3.43 3.43 0 01-.191.043l-.063.012a4.606 4.606 0 01-.398.062c-.633.078-1.238.117-1.816.117-2.363 0-4.207-.711-5.496-2.3-.812-1-1.117-1.989-1.043-3.009a.78.78 0 00-.418-.742.792.792 0 00-.379-.098.783.783 0 00-.465.156c-.86.63-1.895.98-3.012.98a4.656 4.656 0 01-3.316-1.39 4.605 4.605 0 01-.988-1.528c-.266.02-.504.031-.723.031-3.945 0-8.406-3.367-12.726-7.664.77.258 1.644.515 2.64.515.536 0 1.114-.062 1.72-.2 1.593-.347 2.42-1.039 3.577-2.01 1.117-.934 2.507-2.098 4.788-3.415a.78.78 0 00.329-.953.785.785 0 00-.879-.46c-.32.066-.613.097-.882.097-1.418 0-2.14-.836-3.586-2.653-.66-.828-1.48-1.855-2.523-3.027-2.36-2.64-2.414-5.109-2.414-5.145a.781.781 0 00-.586-.77.798.798 0 00-.215-.027.778.778 0 00-.7.434c-.476.957-1.492 2.957-1.492 4.707 0 .957.164 2.313.898 3.777-3.203 2.41-4.27 5.309-4.5 7.172-5.11 5.781-10.977 9.578-14.618 9.578C2.416 95.05.78 93.793.78 92.644c0-3.297 6.876-11.555 12.617-18.773 3.02-3.14 4.696-5.66 7.778-5.66.695 0 1.36.152 1.992.45a.8.8 0 00.332.073.783.783 0 00.715-.457c.527-1.133-.168-2.93-.168-2.93s.211.07.63.07c1.41 0 5.156-.734 7.73-3.874.372-.453.762-.852 1.161-1.2a.766.766 0 00.277-.597c0-.176-.058-.343-.168-.48-.273-.344-.781-.582-1.355-.582-.52 0-.965.187-1.254.493a8.68 8.68 0 00-.887.992c-1.996 2.691-5.093 3.687-6.508 3.687-.305 0-.504-.047-.586-.078l-.008-.004c-.012-.004-.015-.012-.015-.012.773-1.746 1.558-3.652 1.558-4.914 0-2.11 1.27-4.367 2.125-5.72.555.626 1.402 1.605 2.168 2.567 1.547 1.945 2.398 2.964 4.199 2.964.39 0 .816-.055 1.273-.168l.016-.008c.039-.011.07-.035.105-.055a.778.778 0 00.36-.855.78.78 0 00-.407-.504c-2.437-1.168-3.699-2.14-4.867-3.117-1.094-.914-2.125-1.777-4.242-2.527 1.86-2.644 8.082-12.625 9.98-15.453 4.93-7.328 11.778-11.66 19.012-12.004h.719c7.547.485 14.652 4.875 19.691 12.254 1.902 2.828 8.125 12.805 9.98 15.457-2.117.746-3.148 1.613-4.246 2.527-1.164.976-2.43 1.949-4.863 3.117a.777.777 0 00-.41.504.787.787 0 00.36.855l.105.059.016.004c.457.117.883.172 1.273.172 1.805 0 2.653-1.02 4.2-2.965a85.282 85.282 0 012.167-2.566c.855 1.352 2.125 3.606 2.125 5.719 0 1.262.785 3.168 1.559 4.914l-.016.012-.008.004c-.086.031-.282.078-.59.078-1.414 0-4.508-.996-6.508-3.687a8.567 8.567 0 00-.886-.992c-.29-.306-.735-.493-1.254-.493-.575 0-1.082.238-1.356.582a.774.774 0 00-.168.48.78.78 0 00.277.598c.399.347.79.746 1.164 1.199 2.57 3.14 6.316 3.875 7.726 3.875.422 0 .633-.07.633-.07s-.695 1.796-.168 2.93a.789.789 0 00.715.457.764.764 0 00.332-.074c.633-.297 1.297-.45 1.992-.45 3.082 0 4.758 2.524 7.778 5.664 5.742 7.214 12.617 15.472 12.617 18.769 0 1.149-1.637 2.406-3.703 2.406-3.64 0-9.508-3.797-14.621-9.578-.227-1.867-1.297-4.762-4.5-7.172.734-1.464.898-2.82.898-3.777 0-1.75-1.016-3.75-1.492-4.707a.783.783 0 00-.7-.434.743.743 0 00-.214.027.786.786 0 00-.586.77s-.055 2.504-2.415 5.145a63.49 63.49 0 00-2.523 3.027c-1.445 1.817-2.168 2.653-3.586 2.653-.27 0-.562-.031-.883-.098a.778.778 0 00-.878.461.78.78 0 00.328.953c2.281 1.317 3.67 2.481 4.789 3.414 1.156.973 1.984 1.664 3.578 2.012.605.136 1.183.199 1.719.199.996 0 1.87-.258 2.64-.516-4.32 4.3-8.78 7.664-12.726 7.664-.219 0-.457-.011-.723-.031a4.65 4.65 0 01-.988 1.527 4.641 4.641 0 01-3.316 1.39 4.65 4.65 0 01-3.016-.98.783.783 0 00-.46-.155.74.74 0 00-.38.098.78.78 0 00-.418.742c.074 1.02-.23 2.012-1.043 3.012-1.289 1.586-3.133 2.297-5.496 2.297-.578 0-1.187-.04-1.82-.117a4.23 4.23 0 01-.395-.063l-.066-.012a3.453 3.453 0 01-.191-.043l-.066-.015a3.26 3.26 0 01-.188-.051l-.074-.024a3.376 3.376 0 01-.176-.058l-.082-.031a2.55 2.55 0 01-.164-.063l-.09-.039a2.675 2.675 0 01-.152-.066l-.094-.043-.144-.07-.094-.047c-.047-.024-.094-.051-.14-.078l-.098-.055c-.043-.028-.086-.055-.129-.082l-.098-.063c-.04-.027-.082-.054-.12-.082l-.09-.07a4.15 4.15 0 01-.13-.101l-.077-.067a8.068 8.068 0 01-.387-.379l-.77-.793" fill="#336791"/></svg>
