<svg viewBox="0 0 256 256" xmlns="http://www.w3.org/2000/svg"><circle cx="128" cy="128" r="128" fill="#FF6C37"/><path d="M149.3 89.3L107 131.5l-11.4-11.4c-2.3-2.3-2.3-6 0-8.3l45.4-45.4c2.3-2.3 6-2.3 8.3 0l0 0c2.3 2.3 2.3 6 0 8.3L149.3 89.3z" fill="#fff"/><path d="M107 131.5l42.3-42.2 30.5 30.5c2.3 2.3 2.3 6 0 8.3l-45.4 45.4c-2.3 2.3-6 2.3-8.3 0l-30.5-30.5L107 131.5z" fill="#fff" opacity=".6"/><path d="M95.6 120.1L107 131.5l-11.4 11.4c-2.3 2.3-6 2.3-8.3 0l0 0c-2.3-2.3-2.3-6 0-8.3L95.6 120.1z" fill="#fff" opacity=".4"/></svg>
