<svg viewBox="0 0 256 256" xmlns="http://www.w3.org/2000/svg"><rect width="256" height="256" rx="12" fill="#3178c6"/><path d="M150.52 142.13v21.67c3.53 1.81 7.73 3.17 12.6 4.08 4.87.91 10.03 1.37 15.49 1.37 5.29 0 10.28-.51 14.98-1.53 4.7-1.02 8.79-2.67 12.28-4.96 3.49-2.29 6.24-5.27 8.24-8.94 2-3.67 3-8.12 3-13.35 0-3.83-.61-7.14-1.82-9.94-1.21-2.8-2.9-5.27-5.07-7.41-2.17-2.14-4.74-4.03-7.72-5.67-2.98-1.64-6.25-3.15-9.82-4.54-2.62-1.04-4.96-2.06-7.02-3.06-2.06-1-3.81-2.04-5.25-3.12-1.44-1.08-2.55-2.24-3.31-3.49-.77-1.25-1.15-2.65-1.15-4.21 0-1.4.36-2.67 1.07-3.82.71-1.15 1.71-2.14 3-2.98 1.29-.84 2.84-1.49 4.66-1.95 1.82-.46 3.84-.69 6.05-.69 1.57 0 3.24.12 5.01.38 1.77.25 3.55.65 5.33 1.18 1.78.53 3.48 1.2 5.1 1.99 1.62.8 3.07 1.73 4.37 2.78v-20.15c-3.21-1.28-6.82-2.25-10.84-2.9-4.02-.65-8.58-.98-13.69-.98-5.25 0-10.17.54-14.76 1.61-4.59 1.07-8.6 2.76-12.01 5.07-3.41 2.31-6.08 5.25-8.01 8.82-1.93 3.57-2.9 7.81-2.9 12.71 0 8.44 2.5 15.13 7.49 20.07 4.99 4.94 12.34 9.01 22.04 12.19 2.69 1 5.15 2.01 7.37 3.02 2.22 1.01 4.13 2.09 5.73 3.24 1.6 1.15 2.84 2.42 3.73 3.82.89 1.4 1.33 3 1.33 4.82 0 1.32-.33 2.53-.99 3.63-.66 1.1-1.63 2.05-2.91 2.84-1.28.79-2.86 1.41-4.75 1.84-1.89.43-4.07.65-6.53.65-4.26 0-8.57-.78-12.92-2.33-4.35-1.55-8.35-3.92-12-7.1z" fill="white"/><path d="M99.83 108.49H128v-17.78H54v17.78h28.17V200H99.83V108.49z" fill="white"/></svg>
